<svg xmlns="http://www.w3.org/2000/svg" width="70.903" height="70.903" viewBox="0 0 70.903 70.903">
  <path id="np_call_211656_000000" d="M75.72,57.1A40.516,40.516,0,0,1,63,55.079a5.45,5.45,0,0,0-5.535,1.172l-8.05,6.08a44.957,44.957,0,0,1-20.008-20l5.916-7.857a5.65,5.65,0,0,0,1.385-5.709,40.5,40.5,0,0,1-2.04-12.744,5.6,5.6,0,0,0-5.6-5.6H16.016a5.6,5.6,0,0,0-5.6,5.6A65.382,65.382,0,0,0,75.723,81.321a5.6,5.6,0,0,0,5.6-5.6V62.7a5.61,5.61,0,0,0-5.6-5.6Z" transform="translate(-10.418 -10.418)" fill="#fff"/>
</svg>
