<svg id="Group_24784" data-name="Group 24784" xmlns="http://www.w3.org/2000/svg" width="676.273" height="175.983" viewBox="0 0 676.273 175.983">
  <g id="Group_8" data-name="Group 8" transform="translate(191.383 154.741)">
    <g id="Group_7" data-name="Group 7" transform="translate(0 0)">
      <path id="Path_17461" data-name="Path 17461" d="M1586.874,121.857a8.729,8.729,0,0,1-2.938-.472,6.725,6.725,0,0,1-2.3-1.353,6.118,6.118,0,0,1-1.506-2.123,6.927,6.927,0,0,1-.54-2.784,8.9,8.9,0,0,1,.672-3.376,9.3,9.3,0,0,1,1.914-2.97,9.5,9.5,0,0,1,7.029-2.938,6.992,6.992,0,0,1,3.96,1.056,5.987,5.987,0,0,1,2.289,2.838l-3.7,1.98a3.715,3.715,0,0,0-1.21-1.462,3.246,3.246,0,0,0-1.891-.518,4,4,0,0,0-1.806.418,4.758,4.758,0,0,0-1.453,1.122,5.611,5.611,0,0,0-.979,1.619,5.137,5.137,0,0,0-.363,1.925,3.091,3.091,0,0,0,.869,2.32,3.041,3.041,0,0,0,2.212.847,3.792,3.792,0,0,0,1.782-.406,6.451,6.451,0,0,0,1.516-1.156l2.884,2.552a9.086,9.086,0,0,1-2.683,2.08A8.164,8.164,0,0,1,1586.874,121.857Z" transform="translate(-1579.59 -105.841)" fill="#fff"/>
      <path id="Path_17462" data-name="Path 17462" d="M1589.733,105.949h4.289l-1.562,5.762h5.436l1.54-5.762h4.291l-4.136,15.4H1595.3l1.585-5.854h-5.434l-1.565,5.854H1585.6Z" transform="translate(-1568.413 -105.64)" fill="#fff"/>
      <path id="Path_17463" data-name="Path 17463" d="M1602.554,105.91h4.183l2.4,15.512h-4.489l-.375-2.752h-5.939l-1.848,2.752h-4.643Zm1.366,9.438-.551-4.423-2.884,4.423Z" transform="translate(-1556.793 -105.713)" fill="#fff"/>
      <path id="Path_17464" data-name="Path 17464" d="M1603.352,105.949h4.269l-4.136,15.4h-4.27Z" transform="translate(-1543.068 -105.64)" fill="#fff"/>
      <path id="Path_17465" data-name="Path 17465" d="M1609.644,121.786a10.744,10.744,0,0,1-4.083-.738,8.522,8.522,0,0,1-3.071-2.077l2.75-2.841a6.949,6.949,0,0,0,4.752,2.091,2.329,2.329,0,0,0,1.256-.306.95.95,0,0,0,.483-.838.831.831,0,0,0-.1-.406,1.114,1.114,0,0,0-.383-.375,6.988,6.988,0,0,0-.782-.418c-.332-.155-.767-.332-1.31-.538a15.279,15.279,0,0,1-1.66-.738,5.522,5.522,0,0,1-1.255-.878,3.453,3.453,0,0,1-1.088-2.629,4.556,4.556,0,0,1,.5-2.114,5.023,5.023,0,0,1,1.362-1.659,6.442,6.442,0,0,1,2.068-1.079,8.474,8.474,0,0,1,2.61-.386,9.853,9.853,0,0,1,3.619.618,8.29,8.29,0,0,1,2.695,1.671l-2.641,2.95a7.764,7.764,0,0,0-1.882-1.233,5.143,5.143,0,0,0-2.188-.463,2.09,2.09,0,0,0-1.222.32.932.932,0,0,0-.449.781.7.7,0,0,0,.109.406,1.3,1.3,0,0,0,.386.34,5.664,5.664,0,0,0,.78.4c.338.146.77.323,1.3.526a13.457,13.457,0,0,1,1.619.727,5.93,5.93,0,0,1,1.265.893,3.589,3.589,0,0,1,.824,1.153,3.7,3.7,0,0,1,.3,1.519,4.816,4.816,0,0,1-.484,2.166,5.037,5.037,0,0,1-1.353,1.685,6.274,6.274,0,0,1-2.081,1.087A8.629,8.629,0,0,1,1609.644,121.786Z" transform="translate(-1536.971 -105.813)" fill="#fff"/>
      <path id="Path_17466" data-name="Path 17466" d="M1612.611,105.949h4.268l-4.137,15.4h-4.268Z" transform="translate(-1525.837 -105.64)" fill="#fff"/>
      <path id="Path_17467" data-name="Path 17467" d="M1615.967,105.949h5.809a10.635,10.635,0,0,1,3.233.418,5.024,5.024,0,0,1,2.063,1.187,3.786,3.786,0,0,1,.9,1.419,5.174,5.174,0,0,1,.285,1.728,5.339,5.339,0,0,1-1.118,3.376,6.321,6.321,0,0,1-3.491,2.08l2.374,5.193h-4.706l-2.049-4.666h-1.891l-1.253,4.666h-4.292Zm4.741,7.39a4.093,4.093,0,0,0,2.309-.575,1.8,1.8,0,0,0,.859-1.571,1.51,1.51,0,0,0-.4-1.039,2.641,2.641,0,0,0-1.891-.532h-2.311l-1.013,3.716Z" transform="translate(-1519.59 -105.64)" fill="#fff"/>
      <path id="Path_17468" data-name="Path 17468" d="M1622.444,105.949h4.268l-4.134,15.4h-4.269Z" transform="translate(-1507.532 -105.64)" fill="#fff"/>
      <path id="Path_17469" data-name="Path 17469" d="M1628.837,105.949h3.981l3.983,8.557,2.309-8.557h4.245l-4.134,15.4h-3.742l-4.157-8.869-2.377,8.869H1624.7Z" transform="translate(-1495.64 -105.64)" fill="#fff"/>
      <path id="Path_17470" data-name="Path 17470" d="M1635.5,115.387l-3.1-9.438h4.6l1.52,5.762,4.639-5.762h5.1l-8.6,9.9-1.473,5.5h-4.289Z" transform="translate(-1481.315 -105.64)" fill="#fff"/>
      <path id="Path_17471" data-name="Path 17471" d="M1641.846,105.949h4.292l-3.125,11.659h7.348l-1.01,3.742h-11.639Z" transform="translate(-1471.425 -105.64)" fill="#fff"/>
      <path id="Path_17472" data-name="Path 17472" d="M1651.2,121.822a8.2,8.2,0,0,1-3-.529,6.956,6.956,0,0,1-2.32-1.453,6.347,6.347,0,0,1-1.5-2.189,7.035,7.035,0,0,1-.53-2.738,8.773,8.773,0,0,1,.684-3.4,9.094,9.094,0,0,1,1.9-2.892,9.386,9.386,0,0,1,2.9-2.014,8.852,8.852,0,0,1,3.686-.758,8.19,8.19,0,0,1,3,.526,6.953,6.953,0,0,1,2.32,1.453,6.344,6.344,0,0,1,1.5,2.189,7.028,7.028,0,0,1,.53,2.738,8.783,8.783,0,0,1-.684,3.4,9.14,9.14,0,0,1-1.9,2.892,9.419,9.419,0,0,1-2.9,2.011A8.852,8.852,0,0,1,1651.2,121.822Zm.378-3.828a3.821,3.821,0,0,0,1.826-.441,4.46,4.46,0,0,0,1.39-1.156,5.624,5.624,0,0,0,.885-1.585,4.994,4.994,0,0,0,.317-1.725,4.047,4.047,0,0,0-.218-1.353,3.088,3.088,0,0,0-.646-1.09,2.867,2.867,0,0,0-1.05-.715,4.08,4.08,0,0,0-3.25.186,4.661,4.661,0,0,0-1.388,1.156,5.583,5.583,0,0,0-.9,1.585,5,5,0,0,0-.314,1.728,4.054,4.054,0,0,0,.217,1.35,3.026,3.026,0,0,0,.647,1.09,2.833,2.833,0,0,0,1.05.715A3.78,3.78,0,0,0,1651.576,117.994Z" transform="translate(-1460.006 -105.826)" fill="#fff"/>
      <path id="Path_17473" data-name="Path 17473" d="M1654.645,105.949h3.98l3.982,8.557,2.313-8.557h4.245l-4.137,15.4h-3.74l-4.156-8.869-2.378,8.869h-4.245Z" transform="translate(-1447.612 -105.64)" fill="#fff"/>
      <path id="Path_17474" data-name="Path 17474" d="M1668.21,121.857a8.724,8.724,0,0,1-2.936-.472,6.736,6.736,0,0,1-2.3-1.353,6.116,6.116,0,0,1-1.508-2.123,6.973,6.973,0,0,1-.538-2.784,8.955,8.955,0,0,1,.669-3.376,9.374,9.374,0,0,1,1.917-2.97,9.5,9.5,0,0,1,7.026-2.938,7,7,0,0,1,3.963,1.056,5.962,5.962,0,0,1,2.285,2.838l-3.693,1.98a3.7,3.7,0,0,0-1.212-1.462,3.237,3.237,0,0,0-1.892-.518,3.983,3.983,0,0,0-1.8.418,4.764,4.764,0,0,0-1.454,1.122,5.493,5.493,0,0,0-.978,1.619,5.142,5.142,0,0,0-.364,1.925,3.089,3.089,0,0,0,.87,2.32,3.039,3.039,0,0,0,2.212.847,3.777,3.777,0,0,0,1.779-.406,6.4,6.4,0,0,0,1.519-1.156l2.885,2.552a9.092,9.092,0,0,1-2.687,2.08A8.145,8.145,0,0,1,1668.21,121.857Z" transform="translate(-1428.221 -105.841)" fill="#fff"/>
      <path id="Path_17475" data-name="Path 17475" d="M1677.171,105.91h4.18l2.4,15.512h-4.489l-.374-2.752h-5.94l-1.849,2.752h-4.642Zm1.365,9.438-.55-4.423-2.884,4.423Z" transform="translate(-1417.931 -105.713)" fill="#fff"/>
      <path id="Path_17476" data-name="Path 17476" d="M1677.93,105.949h3.983l3.982,8.557,2.309-8.557h4.249l-4.137,15.4h-3.74l-4.159-8.869-2.375,8.869h-4.249Z" transform="translate(-1404.278 -105.64)" fill="#fff"/>
      <path id="Path_17477" data-name="Path 17477" d="M1681.63,105.949h4.664l.858,9.679,6.051-9.679h4.817l-10.362,15.509h-3.982Z" transform="translate(-1389.694 -105.64)" fill="#fff"/>
      <path id="Path_17478" data-name="Path 17478" d="M1697.519,105.91h4.18l2.4,15.512h-4.489l-.375-2.752H1693.3l-1.848,2.752h-4.643Zm1.365,9.438-.55-4.423-2.883,4.423Z" transform="translate(-1380.064 -105.713)" fill="#fff"/>
      <path id="Path_17479" data-name="Path 17479" d="M1701.208,121.786a10.749,10.749,0,0,1-4.081-.738,8.526,8.526,0,0,1-3.07-2.077l2.75-2.841a6.95,6.95,0,0,0,4.752,2.091,2.325,2.325,0,0,0,1.256-.306.956.956,0,0,0,.484-.838.867.867,0,0,0-.1-.406,1.12,1.12,0,0,0-.384-.375,6.91,6.91,0,0,0-.781-.418c-.332-.155-.767-.332-1.311-.538a15.61,15.61,0,0,1-1.662-.738,5.521,5.521,0,0,1-1.253-.878,3.441,3.441,0,0,1-1.09-2.629,4.594,4.594,0,0,1,.494-2.114,5.047,5.047,0,0,1,1.365-1.659,6.45,6.45,0,0,1,2.069-1.079,8.453,8.453,0,0,1,2.609-.386,9.836,9.836,0,0,1,3.616.618,8.287,8.287,0,0,1,2.7,1.671l-2.64,2.95a7.858,7.858,0,0,0-1.883-1.233,5.143,5.143,0,0,0-2.189-.463,2.082,2.082,0,0,0-1.222.32.934.934,0,0,0-.452.781.7.7,0,0,0,.112.406,1.254,1.254,0,0,0,.383.34,5.676,5.676,0,0,0,.781.4c.337.146.772.323,1.3.526a13.488,13.488,0,0,1,1.619.727,5.942,5.942,0,0,1,1.265.893,3.594,3.594,0,0,1,.824,1.153,3.7,3.7,0,0,1,.3,1.519,4.842,4.842,0,0,1-.484,2.166,5.03,5.03,0,0,1-1.353,1.685,6.287,6.287,0,0,1-2.08,1.087A8.647,8.647,0,0,1,1701.208,121.786Z" transform="translate(-1366.568 -105.813)" fill="#fff"/>
      <path id="Path_17480" data-name="Path 17480" d="M1707.166,105.949h12.322l-1.013,3.739h-8.03l-.7,2.618H1717l-.947,3.542h-7.261l-1.473,5.5h-4.289Z" transform="translate(-1349.866 -105.64)" fill="#fff"/>
      <path id="Path_17481" data-name="Path 17481" d="M1719.182,105.91h4.18l2.4,15.512h-4.488l-.375-2.752h-5.939l-1.849,2.752h-4.643Zm1.364,9.438-.549-4.423-2.884,4.423Z" transform="translate(-1339.748 -105.713)" fill="#fff"/>
      <path id="Path_17482" data-name="Path 17482" d="M1723.573,121.857a8.732,8.732,0,0,1-2.938-.472,6.732,6.732,0,0,1-2.3-1.353,6.142,6.142,0,0,1-1.508-2.123,6.956,6.956,0,0,1-.539-2.784,8.96,8.96,0,0,1,.67-3.376,9.393,9.393,0,0,1,1.917-2.97,9.5,9.5,0,0,1,7.027-2.938,7,7,0,0,1,3.962,1.056,5.993,5.993,0,0,1,2.289,2.838l-3.7,1.98a3.714,3.714,0,0,0-1.21-1.462,3.249,3.249,0,0,0-1.894-.518,3.993,3.993,0,0,0-1.8.418,4.754,4.754,0,0,0-1.454,1.122,5.621,5.621,0,0,0-.978,1.619,5.137,5.137,0,0,0-.364,1.925,3.09,3.09,0,0,0,.871,2.32,3.037,3.037,0,0,0,2.211.847,3.794,3.794,0,0,0,1.783-.406,6.434,6.434,0,0,0,1.515-1.156l2.885,2.552a9.068,9.068,0,0,1-2.684,2.08A8.159,8.159,0,0,1,1723.573,121.857Z" transform="translate(-1325.194 -105.841)" fill="#fff"/>
      <path id="Path_17483" data-name="Path 17483" d="M1727.653,109.688h-4.62l1.013-3.739h13.487l-.99,3.739h-4.62L1728.8,121.35h-4.292Z" transform="translate(-1312.644 -105.64)" fill="#fff"/>
      <path id="Path_17484" data-name="Path 17484" d="M1735.994,121.822a8.193,8.193,0,0,1-3-.529,6.969,6.969,0,0,1-2.323-1.453,6.39,6.39,0,0,1-1.5-2.189,7.025,7.025,0,0,1-.527-2.738,8.748,8.748,0,0,1,.681-3.4,9.165,9.165,0,0,1,1.9-2.892,9.4,9.4,0,0,1,2.907-2.014,8.847,8.847,0,0,1,3.685-.758,8.188,8.188,0,0,1,3,.526,6.963,6.963,0,0,1,2.323,1.453,6.4,6.4,0,0,1,1.5,2.189,7.049,7.049,0,0,1,.527,2.738,8.772,8.772,0,0,1-.681,3.4,9.187,9.187,0,0,1-1.9,2.892,9.437,9.437,0,0,1-2.9,2.011A8.868,8.868,0,0,1,1735.994,121.822Zm.378-3.828a3.829,3.829,0,0,0,1.828-.441,4.453,4.453,0,0,0,1.388-1.156,5.59,5.59,0,0,0,.887-1.585,5.028,5.028,0,0,0,.317-1.725,4.073,4.073,0,0,0-.22-1.353,3.082,3.082,0,0,0-.643-1.09,2.89,2.89,0,0,0-1.05-.715,4.079,4.079,0,0,0-3.25.186,4.633,4.633,0,0,0-1.388,1.156,5.5,5.5,0,0,0-.9,1.585,4.993,4.993,0,0,0-.318,1.728,4.055,4.055,0,0,0,.22,1.35,3.065,3.065,0,0,0,.644,1.09,2.888,2.888,0,0,0,1.05.715A3.779,3.779,0,0,0,1736.372,117.994Z" transform="translate(-1302.196 -105.826)" fill="#fff"/>
      <path id="Path_17485" data-name="Path 17485" d="M1739.438,105.949h5.811a10.633,10.633,0,0,1,3.233.418,5.017,5.017,0,0,1,2.062,1.187,3.768,3.768,0,0,1,.9,1.419,5.143,5.143,0,0,1,.284,1.728,5.354,5.354,0,0,1-1.116,3.376,6.318,6.318,0,0,1-3.493,2.08l2.377,5.193h-4.709l-2.046-4.666h-1.891l-1.256,4.666H1735.3Zm4.743,7.39a4.1,4.1,0,0,0,2.309-.575,1.8,1.8,0,0,0,.858-1.571,1.5,1.5,0,0,0-.4-1.039,2.645,2.645,0,0,0-1.894-.532h-2.309l-1.013,3.716Z" transform="translate(-1289.809 -105.64)" fill="#fff"/>
      <path id="Path_17486" data-name="Path 17486" d="M1745.637,115.387l-3.1-9.438h4.6l1.519,5.762,4.644-5.762h5.1l-8.6,9.9-1.476,5.5h-4.289Z" transform="translate(-1276.35 -105.64)" fill="#fff"/>
    </g>
  </g>
  <g id="Group_10" data-name="Group 10" transform="translate(189.981 10.587)">
    <g id="Group_9" data-name="Group 9">
      <path id="Path_17487" data-name="Path 17487" d="M1660.67,139.837a65.308,65.308,0,0,1-12.027,8,29.915,29.915,0,0,1-13.438,2.8,29.049,29.049,0,0,1-10.514-1.817,23.776,23.776,0,0,1-8.108-5.178,23.324,23.324,0,0,1-5.319-8.022,27.911,27.911,0,0,1-1.888-10.486,42.743,42.743,0,0,1,3.19-16.436,43.716,43.716,0,0,1,8.575-13.412,42.07,42.07,0,0,1,12.3-9.029,32.406,32.406,0,0,1,14.2-3.3c6.406,0,11.621,1.31,15.5,3.894a42.025,42.025,0,0,1,10.885,10.9l1.228,1.742L1699.4,82.557l-1.041-1.708a53.357,53.357,0,0,0-18.816-18.562c-7.771-4.532-17.458-6.832-28.8-6.832a69.446,69.446,0,0,0-28.086,5.742,72.648,72.648,0,0,0-22.693,15.5,74.9,74.9,0,0,0-15.236,22.47,66.426,66.426,0,0,0-5.624,26.945,54.078,54.078,0,0,0,4.157,21.532,46.941,46.941,0,0,0,11.659,16.442,52.489,52.489,0,0,0,17.752,10.4,66.638,66.638,0,0,0,22.373,3.639c9.871,0,18.488-1.719,25.611-5.113a77.358,77.358,0,0,0,19.175-12.949l1.6-1.479-19.234-20Z" transform="translate(-1579.1 -55.455)" fill="#fff"/>
      <path id="Path_17488" data-name="Path 17488" d="M1709.477,116.523a42.99,42.99,0,0,0-9.121-6.718,109.583,109.583,0,0,0-11.1-5.339c-3.976-1.657-7.132-3.036-9.645-4.214a37.8,37.8,0,0,1-5.8-3.239,9.025,9.025,0,0,1-2.655-2.672,5.8,5.8,0,0,1-.7-2.95c0-2.194,1.17-4.257,3.578-6.3,2.478-2.106,6.169-3.173,10.967-3.173A30.758,30.758,0,0,1,1698.7,84.8a53.472,53.472,0,0,1,12.334,8.812l1.511,1.393,20.247-20.247-1.414-1.511a56.36,56.36,0,0,0-18.353-12.92c-7.115-3.159-15.882-4.761-26.052-4.761a59.761,59.761,0,0,0-18.061,2.715,47.494,47.494,0,0,0-15.152,7.882A39.343,39.343,0,0,0,1643.3,78.7a35.487,35.487,0,0,0-3.928,16.78,27.5,27.5,0,0,0,2.5,12.048,30.608,30.608,0,0,0,6.677,9.055,44.032,44.032,0,0,0,9.452,6.7c3.431,1.828,7.071,3.536,10.837,5.087,3.743,1.5,6.882,2.878,9.324,4.1a34.6,34.6,0,0,1,5.613,3.373,9.124,9.124,0,0,1,2.526,2.738,6.04,6.04,0,0,1,.658,2.855,7.915,7.915,0,0,1-3.957,6.892c-2.9,1.931-6.732,2.91-11.406,2.91a36.665,36.665,0,0,1-16.545-3.616,49.8,49.8,0,0,1-13.948-10.752l-1.387-1.485-22.087,18.659,1.256,1.619c11.273,14.548,28.625,21.924,51.567,21.924a60.866,60.866,0,0,0,17.878-2.629,46.192,46.192,0,0,0,15.172-7.808,39.737,39.737,0,0,0,10.54-12.7,36.191,36.191,0,0,0,4.008-17.106,28.872,28.872,0,0,0-2.311-11.833A29.34,29.34,0,0,0,1709.477,116.523Z" transform="translate(-1507.394 -55.241)" fill="#fff"/>
      <path id="Path_17489" data-name="Path 17489" d="M1746.605,124.787l-31.47-68.646H1688.9L1657.012,174.89h29.282l19.012-70.947,32.769,70.947H1762.5l31.891-118.749h-29.279Z" transform="translate(-1434.105 -54.178)" fill="#fff"/>
      <path id="Path_17490" data-name="Path 17490" d="M1788.6,139.837a65.334,65.334,0,0,1-12.031,8,29.89,29.89,0,0,1-13.435,2.8,29.026,29.026,0,0,1-10.514-1.817,23.772,23.772,0,0,1-8.108-5.178,23.271,23.271,0,0,1-5.319-8.022,27.906,27.906,0,0,1-1.892-10.486,42.709,42.709,0,0,1,3.194-16.436,43.764,43.764,0,0,1,8.571-13.412,42.069,42.069,0,0,1,12.3-9.029,32.431,32.431,0,0,1,14.2-3.3c6.406,0,11.619,1.31,15.5,3.894a42.044,42.044,0,0,1,10.889,10.9l1.224,1.742,24.155-16.929-1.042-1.708a53.381,53.381,0,0,0-18.82-18.562c-7.767-4.532-17.454-6.832-28.8-6.832A69.424,69.424,0,0,0,1750.58,61.2a72.7,72.7,0,0,0-22.7,15.5,74.88,74.88,0,0,0-15.232,22.47,66.37,66.37,0,0,0-5.625,26.945,54.086,54.086,0,0,0,4.155,21.532,46.994,46.994,0,0,0,11.662,16.442,52.474,52.474,0,0,0,17.749,10.4,66.652,66.652,0,0,0,22.373,3.639c9.871,0,18.487-1.719,25.615-5.113a77.34,77.34,0,0,0,19.171-12.949l1.605-1.479-19.235-20Z" transform="translate(-1341.028 -55.455)" fill="#fff"/>
    </g>
  </g>
  <g id="Group_39" data-name="Group 39" transform="translate(0 0)">
    <g id="Group_12" data-name="Group 12" transform="translate(83.152 0)">
      <g id="Group_11" data-name="Group 11" transform="translate(0)">
        <rect id="Rectangle_5" data-name="Rectangle 5" width="24.81" height="15.4" transform="matrix(0.81, -0.586, 0.586, 0.81, 0, 14.534)" fill="#fff"/>
      </g>
    </g>
    <g id="Group_14" data-name="Group 14" transform="translate(149.499 81.24)">
      <g id="Group_13" data-name="Group 13" transform="translate(0 0)">
        <rect id="Rectangle_6" data-name="Rectangle 6" width="15.4" height="24.81" transform="matrix(0.81, -0.586, 0.586, 0.81, 0, 9.021)" fill="#fff"/>
      </g>
    </g>
    <g id="Group_16" data-name="Group 16" transform="translate(85.342 127.612)">
      <g id="Group_15" data-name="Group 15" transform="translate(0 0)">
        <rect id="Rectangle_7" data-name="Rectangle 7" width="15.4" height="24.81" transform="matrix(0.81, -0.586, 0.586, 0.81, 0, 9.021)" fill="#fff"/>
      </g>
    </g>
    <g id="Group_17" data-name="Group 17" transform="translate(18.419 30.341)">
      <rect id="Rectangle_8" data-name="Rectangle 8" width="15.4" height="52.887" transform="translate(42.862 0) rotate(54.14)" fill="#fff"/>
    </g>
    <g id="Group_19" data-name="Group 19" transform="translate(61.252 37.025)">
      <g id="Group_18" data-name="Group 18" transform="translate(0 0)">
        <rect id="Rectangle_9" data-name="Rectangle 9" width="52.887" height="15.4" transform="matrix(0.81, -0.586, 0.586, 0.81, 0, 30.981)" fill="#fff"/>
      </g>
    </g>
    <g id="Group_21" data-name="Group 21" transform="translate(63.702 93.508)">
      <g id="Group_20" data-name="Group 20" transform="translate(0 0)">
        <rect id="Rectangle_10" data-name="Rectangle 10" width="55.556" height="15.4" transform="matrix(0.81, -0.586, 0.586, 0.81, 0, 32.544)" fill="#fff"/>
      </g>
    </g>
    <g id="Group_23" data-name="Group 23" transform="translate(107.151 101.501)">
      <g id="Group_22" data-name="Group 22" transform="translate(0 0)">
        <rect id="Rectangle_11" data-name="Rectangle 11" width="52.887" height="15.4" transform="matrix(0.81, -0.586, 0.586, 0.81, 0, 30.981)" fill="#fff"/>
      </g>
    </g>
    <g id="Group_25" data-name="Group 25" transform="translate(102.518 16.242)">
      <g id="Group_24" data-name="Group 24" transform="translate(0 0)">
        <rect id="Rectangle_12" data-name="Rectangle 12" width="15.4" height="52.887" transform="translate(0 9.021) rotate(-35.86)" fill="#fff"/>
      </g>
    </g>
    <g id="Group_27" data-name="Group 27" transform="translate(38.934 63.608)">
      <g id="Group_26" data-name="Group 26" transform="translate(0 0)">
        <rect id="Rectangle_13" data-name="Rectangle 13" width="15.4" height="52.887" transform="matrix(0.81, -0.586, 0.586, 0.81, 0, 9.021)" fill="#fff"/>
      </g>
    </g>
    <g id="Group_28" data-name="Group 28" transform="translate(96.858 59.039)">
      <rect id="Rectangle_14" data-name="Rectangle 14" width="15.4" height="52.887" transform="translate(43.462 42.862) rotate(144.14)" fill="#fff"/>
    </g>
    <g id="Group_30" data-name="Group 30" transform="translate(30.116 107.28)">
      <g id="Group_29" data-name="Group 29" transform="translate(0 0)">
        <rect id="Rectangle_15" data-name="Rectangle 15" width="15.4" height="52.887" transform="matrix(0.81, -0.586, 0.586, 0.81, 0, 9.021)" fill="#fff"/>
      </g>
    </g>
    <g id="Group_31" data-name="Group 31" transform="translate(0 65.27)">
      <rect id="Rectangle_16" data-name="Rectangle 16" width="25.118" height="15.988" transform="translate(12.957 0) rotate(54.14)" fill="#fff"/>
    </g>
    <g id="Group_33" data-name="Group 33" transform="translate(66.015 17.555)">
      <g id="Group_32" data-name="Group 32" transform="translate(0 0)">
        <rect id="Rectangle_17" data-name="Rectangle 17" width="15.988" height="24.374" transform="translate(0 9.366) rotate(-35.859)" fill="#fff"/>
      </g>
    </g>
    <g id="Group_35" data-name="Group 35" transform="translate(129.671 63.658)">
      <g id="Group_34" data-name="Group 34" transform="translate(0 0)">
        <rect id="Rectangle_18" data-name="Rectangle 18" width="24.184" height="15.988" transform="translate(0 14.167) rotate(-35.859)" fill="#fff"/>
      </g>
    </g>
    <g id="Group_37" data-name="Group 37" transform="translate(17.699 83.6)">
      <g id="Group_36" data-name="Group 36" transform="translate(0 0)">
        <rect id="Rectangle_19" data-name="Rectangle 19" width="26.498" height="15.988" transform="translate(0 15.523) rotate(-35.859)" fill="#fff"/>
      </g>
    </g>
    <g id="Group_38" data-name="Group 38" transform="translate(63.888 147.448)">
      <rect id="Rectangle_20" data-name="Rectangle 20" width="26.593" height="15.988" transform="matrix(-0.81, 0.586, -0.586, -0.81, 30.918, 12.958)" fill="#fff"/>
    </g>
  </g>
</svg>
