<svg xmlns="http://www.w3.org/2000/svg" width="196.184" height="194.683" viewBox="0 0 196.184 194.683">
  <path id="Path_4679" data-name="Path 4679" d="M-574,465.772c0-10.8.023-21.6-.031-32.4-.007-1.428.269-1.942,1.845-1.918,6.479.1,12.96.006,19.439.075,1.227.013,1.67-.356,1.845-1.544q1.87-12.633,3.865-25.248c.225-1.412-.317-1.59-1.516-1.583-7.9.04-15.8-.013-23.7.059-1.431.013-1.8-.385-1.782-1.8.088-5.853-.038-11.71.082-17.562.1-4.909,1.816-9.132,6.105-11.92,2.907-1.89,6.23-2.384,9.617-2.439,3.637-.059,7.278-.095,10.912,0,1.407.038,1.688-.457,1.677-1.745q-.084-10.316,0-20.632c.011-1.315-.307-1.818-1.726-2.017a125.386,125.386,0,0,0-22.752-1.553c-9.243.393-17.67,3.072-24.389,9.791-6.195,6.2-9.022,13.944-9.8,22.486-.762,8.333-.179,16.7-.329,25.05-.048,2.666.266,2.3-2.233,2.3-6.992.017-13.984.041-20.975-.027-1.36-.014-1.711.394-1.7,1.717q.081,12.533-.005,25.066c-.01,1.319.424,1.605,1.658,1.6,7.161-.054,14.324.01,21.485-.062,1.4-.014,1.808.338,1.8,1.776q-.071,32.4.011,64.8c.005,1.8-.623,1.879-2.049,1.616a96.166,96.166,0,0,1-40.219-17.2c-20.95-15.456-34.194-35.988-38.781-61.606-5.029-28.086,1.01-53.912,18.245-76.759,15.176-20.117,35.373-32.6,60.153-37.207,22.361-4.158,43.834-1.027,63.9,9.811,24.74,13.362,41.235,33.675,48.52,60.835,7.685,28.655,3.237,55.734-13.328,80.416-14.434,21.507-34.62,35-59.867,40.879-1.382.321-2.79.528-4.169.855-1.333.317-1.849.044-1.839-1.512C-573.965,487.371-574,476.572-574,465.772Z" transform="translate(687.365 -305.115)" fill="#0065c9"/>
</svg>
