<svg xmlns="http://www.w3.org/2000/svg" width="89.04" height="89.04" viewBox="0 0 89.04 89.04">
  <path id="np_fax_1859262_000000" d="M94.579,33.364V22.23a5.558,5.558,0,0,0-5.567-5.562H55.621a5.56,5.56,0,0,0-5.562,5.562V33.364H27.8A11.129,11.129,0,0,0,16.668,44.492V94.579A11.133,11.133,0,0,0,27.8,105.708H94.579a11.133,11.133,0,0,0,11.129-11.129V44.492A11.133,11.133,0,0,0,94.579,33.364ZM55.621,22.23H89.012V44.492H55.621ZM27.8,100.147A5.576,5.576,0,0,1,22.23,94.58V44.492A5.576,5.576,0,0,1,27.8,38.925H38.925v61.221ZM61.188,63.974v-.005A2.779,2.779,0,1,1,60.374,62a2.781,2.781,0,0,1,.814,1.967Zm27.824,0v-.005A2.779,2.779,0,1,1,88.2,62a2.781,2.781,0,0,1,.814,1.967Zm-13.915,0,.005-.005A2.788,2.788,0,1,1,74.284,62a2.778,2.778,0,0,1,.819,1.967ZM61.183,75.1h.005a2.788,2.788,0,1,1-.814-1.967,2.779,2.779,0,0,1,.814,1.967Zm27.824,0h.005a2.788,2.788,0,1,1-.814-1.967,2.779,2.779,0,0,1,.814,1.967Zm-13.915,0h.01a2.8,2.8,0,1,1-.819-1.967A2.776,2.776,0,0,1,75.1,75.1ZM61.177,86.232h.01a2.779,2.779,0,1,1-.814-1.967,2.787,2.787,0,0,1,.814,1.967Zm27.824,0h.01a2.779,2.779,0,1,1-.814-1.967,2.787,2.787,0,0,1,.814,1.967Zm-13.915,0H75.1a2.788,2.788,0,1,1-.819-1.967,2.783,2.783,0,0,1,.819,1.967Z" transform="translate(-16.668 -16.668)" fill="#fff"/>
</svg>
