<svg id="Group_24781" data-name="Group 24781" xmlns="http://www.w3.org/2000/svg" width="107.242" height="107.242" viewBox="0 0 107.242 107.242">
  <path id="Path_4675" data-name="Path 4675" d="M454.7-337.724h-2.539a.683.683,0,0,0-.684.683v9.279l-7.148-9.653a.684.684,0,0,0-.055-.07l0-.005-.041-.043-.013-.012c-.012-.011-.024-.021-.037-.031l-.018-.014-.036-.025-.021-.013-.038-.021-.022-.01-.04-.017-.022-.008-.041-.013-.024-.006-.041-.009-.029,0-.037,0-.036,0h-2.548a.683.683,0,0,0-.683.683v15.622a.684.684,0,0,0,.683.684h2.539a.684.684,0,0,0,.684-.684v-9.276l7.157,9.665a.69.69,0,0,0,.176.172l.008.005.043.026.02.011.033.016.033.015.021.008.047.015.009,0a.7.7,0,0,0,.179.024H454.7a.684.684,0,0,0,.683-.684v-15.622A.683.683,0,0,0,454.7-337.724Z" transform="translate(-391.095 380.482)" fill="#fff"/>
  <rect id="Rectangle_1555" data-name="Rectangle 1555" width="3.906" height="16.989" rx="1.953" transform="translate(43.104 42.757)" fill="#fff"/>
  <path id="Path_4676" data-name="Path 4676" d="M391.848-324.64h-6.835v-12.4a.686.686,0,0,0-.683-.683h-2.539a.683.683,0,0,0-.683.683v15.61h0v.011a.683.683,0,0,0,.683.684h10.057a.684.684,0,0,0,.684-.684v-2.539A.686.686,0,0,0,391.848-324.64Z" transform="translate(-351.577 380.482)" fill="#fff"/>
  <path id="Path_4677" data-name="Path 4677" d="M502.852-337.724H492.8a.683.683,0,0,0-.683.683v.015h0v15.594h0v.011a.683.683,0,0,0,.683.684h10.057a.684.684,0,0,0,.684-.684v-2.539a.686.686,0,0,0-.684-.683h-6.834v-2.636h6.834a.684.684,0,0,0,.684-.684V-330.5a.686.686,0,0,0-.684-.683h-6.834v-2.636h6.834a.684.684,0,0,0,.684-.684v-2.539A.686.686,0,0,0,502.852-337.724Z" transform="translate(-425.38 380.482)" fill="#fff"/>
  <path id="Path_4678" data-name="Path 4678" d="M346.611-465.309a53.621,53.621,0,0,0-53.621,53.621,53.621,53.621,0,0,0,53.621,53.621,53.621,53.621,0,0,0,53.621-53.621A53.621,53.621,0,0,0,346.611-465.309ZM374.7-396.938c-7.51,8.644-24.3,19.173-28.125,20.783s-3.257-1.025-3.1-1.93c.091-.539.511-3.064.511-3.064a7.354,7.354,0,0,0-.116-3.237c-.4-1-1.988-1.513-3.154-1.765-17.2-2.273-29.938-14.3-29.938-28.66,0-16.018,16.06-29.049,35.8-29.049s35.8,13.032,35.8,29.049c0,6.41-2.486,12.184-7.673,17.873Z" transform="translate(-292.99 465.309)" fill="#fff"/>
</svg>
