<svg id="Group_24789" data-name="Group 24789" xmlns="http://www.w3.org/2000/svg" width="78.006" height="78.006" viewBox="0 0 78.006 78.006">
  <ellipse id="ARV-BrandIdentityandGuidelines" cx="39.003" cy="39.003" rx="39.003" ry="39.003" transform="translate(0 0)" fill="#2f94cf"/>
  <g id="np_food-grade_4051773_FFFFFF" transform="translate(21.983 18.289)">
    <path id="Path_17921" data-name="Path 17921" d="M73.251,15V26.4c0,1.141-.393,2.5-2.263,2.5h-1.2V55.234h2.4V31.168c2.138-.471,3.462-2.241,3.462-4.771V15Z" transform="translate(-41.18 -15)" fill="#fff"/>
    <path id="Path_17922" data-name="Path 17922" d="M20.016,30.321A11.923,11.923,0,0,0,28.534,41.7v5.961c0,3.527-1.529,5.173-4.814,5.173v2.4c4.652,0,7.214-2.69,7.214-7.571v-5.5c.344.031.676.106,1.026.106s.683-.074,1.026-.106v5.5c0,4.881,2.56,7.571,7.212,7.571v-2.4c-3.285,0-4.814-1.644-4.814-5.173V41.7a11.92,11.92,0,0,0,8.521-11.381V15H20.016Zm2.4-12.923H41.506V30.321a9.546,9.546,0,0,1-19.091,0Z" transform="translate(-20.016 -15)" fill="#fff"/>
    <path id="Path_17923" data-name="Path 17923" d="M69.891,15h2.4V26.074h-2.4Z" transform="translate(-41.223 -15)" fill="#fff"/>
    <path id="Path_17924" data-name="Path 17924" d="M63.988,15h2.4V26.074h-2.4Z" transform="translate(-38.713 -15)" fill="#fff"/>
  </g>
</svg>
