<svg id="Group_24787" data-name="Group 24787" xmlns="http://www.w3.org/2000/svg" width="78.006" height="78.005" viewBox="0 0 78.006 78.005">
  <ellipse id="ARV-BrandIdentityandGuidelines" cx="39.003" cy="39.003" rx="39.003" ry="39.003" transform="translate(0 0)" fill="#2f94cf"/>
  <path id="np_sack_1090054_FFFFFF" d="M31.97,4A9.928,9.928,0,0,0,32.788.8.7.7,0,0,0,32.04.037a9.966,9.966,0,0,0-3.3.86A85.192,85.192,0,0,0,4.085.9a9.983,9.983,0,0,0-3.3-.86A.7.7,0,0,0,.033.795,9.929,9.929,0,0,0,.85,4a188.564,188.564,0,0,0,0,35.774,9.928,9.928,0,0,0-.817,3.2.7.7,0,0,0,.748.756,9.922,9.922,0,0,0,3.3-.863,85.286,85.286,0,0,0,24.651,0,10.035,10.035,0,0,0,3.3.863.7.7,0,0,0,.748-.756,9.911,9.911,0,0,0-.817-3.2A188.792,188.792,0,0,0,31.97,4Zm-4.62,26.09H5.471V13.678H27.35Z" transform="translate(17.489 22.114) rotate(-15)" fill="#fff"/>
</svg>
