<svg id="Group_24788" data-name="Group 24788" xmlns="http://www.w3.org/2000/svg" width="78.006" height="78.006" viewBox="0 0 78.006 78.006">
  <ellipse id="ARV-BrandIdentityandGuidelines" cx="39.003" cy="39.003" rx="39.003" ry="39.003" transform="translate(0 0)" fill="#2f94cf"/>
  <path id="np_layers_1330090_FFFFFF" d="M30.672,11.949,8.734,25.8l5.052,3.19-5.052,3.19,5.052,3.19-5.052,3.19L30.672,52.405,52.609,38.556l-5.052-3.19,5.052-3.19-5.052-3.19,5.052-3.19Zm0,36.683L14.711,38.556l2.064-1.3,13.9,8.774,13.9-8.774,2.064,1.3Zm0-6.379L14.711,32.177l2.064-1.3,13.9,8.774,13.9-8.774,2.064,1.3Zm0-6.379L14.711,25.8,30.672,15.722,46.632,25.8Z" transform="translate(8.332 7.845)" fill="#fff"/>
</svg>
